<svg width="153" height="41" viewBox="0 0 153 41" fill="none" xmlns="http://www.w3.org/2000/svg">
<path d="M46.4445 25.7096L24.2533 0.383477L24.2366 0.366804C24.2198 0.350131 24.2198 0.350131 24.2031 0.333458C24.1864 0.316785 24.1864 0.316785 24.1696 0.300112C24.1529 0.283439 24.1529 0.283439 24.1362 0.266766C24.1194 0.250093 24.1194 0.250093 24.1027 0.23342C24.086 0.216748 24.086 0.216748 24.0692 0.200075C24.0525 0.183402 24.0525 0.183402 24.0357 0.166729C24.019 0.166729 24.019 0.150056 24.0023 0.150056C23.9855 0.133383 23.9688 0.133383 23.9688 0.133383C23.9521 0.133383 23.9521 0.11671 23.9353 0.11671C23.9186 0.11671 23.9019 0.100037 23.8851 0.100037C23.8684 0.100037 23.8684 0.0833645 23.8517 0.0833645C23.8349 0.0833645 23.8182 0.0666916 23.8015 0.0666916H23.7847H23.768C23.7512 0.0666916 23.7345 0.0500187 23.7178 0.0500187C23.701 0.0500187 23.6843 0.0500187 23.6843 0.0333458C23.6676 0.0333458 23.6508 0.0333458 23.6341 0.0166729C23.6174 0.0166729 23.6006 0.0166729 23.6006 0C23.5839 0 23.5672 0 23.5504 0C23.5337 0 23.5169 0 23.5169 0C23.5002 0 23.4835 0 23.4667 0C23.45 0 23.4333 0 23.4333 0C23.4165 0 23.3998 0 23.3831 0C23.3663 0 23.3496 0 23.3496 0C23.3329 0 23.3161 0 23.2994 0C23.2827 0 23.2659 0 23.2659 0C23.2492 0 23.2324 0 23.2157 0C23.199 0 23.1822 0 23.1822 0C23.1655 0 23.1488 0 23.132 0.0166729C23.1153 0.0166729 23.0986 0.0166729 23.0986 0.0333458C23.0818 0.0333458 23.0651 0.0333458 23.0484 0.0500187C23.0316 0.0500187 23.0149 0.0666916 22.9981 0.0666916H22.9814H22.9647C22.9479 0.0666916 22.9312 0.0833645 22.9145 0.0833645C22.8977 0.0833645 22.881 0.100037 22.881 0.100037C22.8643 0.100037 22.8475 0.11671 22.8475 0.11671C22.8308 0.11671 22.8308 0.133383 22.8141 0.133383C22.7973 0.133383 22.7806 0.150056 22.7806 0.150056C22.7639 0.150056 22.7639 0.166729 22.7471 0.166729C22.7304 0.183402 22.7304 0.183402 22.7136 0.200075C22.6969 0.216748 22.6969 0.216748 22.6802 0.23342C22.6634 0.250093 22.6634 0.250093 22.6467 0.266766C22.63 0.283439 22.63 0.283439 22.6132 0.300112C22.5965 0.316785 22.5965 0.316785 22.5798 0.333458C22.563 0.350131 22.563 0.350131 22.5463 0.366804L22.5296 0.383477L0.288126 25.7096C0.0538296 25.9764 -0.0465832 26.3265 0.0203587 26.6766C0.0705651 27.0268 0.288126 27.3269 0.589364 27.4936L22.7806 40.265C22.7973 40.2817 22.8308 40.2817 22.8475 40.2984C22.8643 40.3151 22.8977 40.3151 22.9145 40.3317C22.9312 40.3484 22.9479 40.3484 22.9814 40.3484C22.9814 40.3484 22.9814 40.3484 22.9981 40.3484C23.0149 40.3484 23.0484 40.3651 23.0651 40.3651C23.0818 40.3651 23.0986 40.3817 23.132 40.3817H23.1488C23.1655 40.3817 23.199 40.3817 23.2157 40.3984C23.2659 40.3984 23.3161 40.4151 23.3663 40.4151C23.3998 40.4151 23.4165 40.4151 23.45 40.4151H23.4667C23.4835 40.4151 23.5002 40.4151 23.5337 40.4151C23.5504 40.4151 23.5672 40.4151 23.5839 40.3984H23.6006C23.6174 40.3984 23.6341 40.3984 23.6508 40.3817C23.6676 40.3817 23.6676 40.3817 23.6843 40.3817C23.701 40.3817 23.7178 40.3651 23.7345 40.3651C23.7512 40.3651 23.7512 40.3651 23.768 40.3484C23.7847 40.3484 23.8015 40.3317 23.8015 40.3317C23.8182 40.3317 23.8182 40.3317 23.8349 40.3151C23.8517 40.3151 23.8517 40.2984 23.8684 40.2984C23.8851 40.2984 23.9019 40.2817 23.9186 40.2817C23.9186 40.2817 23.9353 40.2817 23.9353 40.265C23.9521 40.265 23.9688 40.2484 23.9855 40.2484L46.1433 27.4936C46.4445 27.3269 46.6621 27.0101 46.7123 26.6766C46.7625 26.3265 46.6621 25.9764 46.4445 25.7096ZM22.1948 4.26826V37.2306L2.99927 26.1764L22.1948 4.26826ZM24.5378 37.2306V4.26826L43.7334 26.1931L24.5378 37.2306Z" fill="#3A4183"/>
<path d="M52 26.1274L53.8744 24.2934C55.2132 25.9107 56.7529 26.7276 58.5101 26.7276C59.4138 26.7276 60.2004 26.4609 60.8363 25.9273C61.489 25.3938 61.807 24.7102 61.807 23.8932C61.807 23.0262 61.4723 22.3426 60.8196 21.8091C60.1669 21.2922 59.1963 20.7754 57.9411 20.2752C56.6859 19.775 55.799 19.3582 55.2634 19.0247C53.6568 17.9576 52.8535 16.5738 52.8535 14.8565C52.8535 13.4726 53.4058 12.2888 54.4936 11.3051C55.5814 10.3214 56.9537 9.83789 58.6105 9.83789C60.4849 9.83789 62.1919 10.4715 63.7148 11.7219L62.1082 13.6894C61.0706 12.8224 59.9493 12.3889 58.7109 12.3889C57.8574 12.3889 57.1211 12.6223 56.5018 13.0725C55.8826 13.5393 55.5647 14.1562 55.5647 14.9232C55.5647 15.6401 55.8994 16.2403 56.5688 16.7238C57.2382 17.2074 58.1754 17.6909 59.3971 18.1911C60.6188 18.6913 61.5057 19.1081 62.0413 19.4749C63.6814 20.5586 64.5181 21.9925 64.5181 23.7932C64.5181 25.4272 63.9659 26.761 62.8278 27.7614C61.7066 28.7784 60.3008 29.2786 58.6272 29.2786C55.983 29.2953 53.7572 28.2282 52 26.1274Z" fill="#3A4183"/>
<path d="M75.2627 20.6399H70.7775V29.0263H68.0664V10.0859H75.2627C76.9195 10.0859 78.2416 10.5028 79.229 11.3364C80.4841 12.4035 81.1033 13.7373 81.1033 15.3712C81.1033 17.0052 80.4841 18.339 79.229 19.4061C78.2416 20.2231 76.9195 20.6399 75.2627 20.6399ZM70.7775 18.0723H75.112C76.25 18.0723 77.0868 17.7888 77.6056 17.2386C78.1077 16.7051 78.3587 16.0715 78.3587 15.3712C78.3587 14.671 78.1077 14.0541 77.6056 13.5039C77.0868 12.9537 76.25 12.6702 75.112 12.6702H70.7775V18.0723Z" fill="#3A4183"/>
<path d="M84.3516 29.0097V10.0859H87.0627V29.0097H84.3516Z" fill="#3A4183"/>
<path d="M91.9492 29.0097V10.0859H94.6604V18.0556L102.476 10.0859H106.057L97.4887 18.8726L106.609 29.0097H103.145L94.6771 19.5561V29.0097H91.9492Z" fill="#3A4183"/>
<path d="M123.161 10.0859L116.651 20.3564V29.0097H113.94V20.3564L107.43 10.0859H110.459L115.295 17.6888L120.132 10.0859H123.161Z" fill="#3A4183"/>
<path d="M124.248 28.7276C123.879 28.3608 123.695 27.9107 123.695 27.3938C123.695 26.8769 123.879 26.4268 124.248 26.06C124.616 25.6932 125.068 25.5098 125.586 25.5098C126.105 25.5098 126.557 25.6932 126.925 26.06C127.293 26.4268 127.478 26.8769 127.478 27.3938C127.478 27.9107 127.293 28.3608 126.925 28.7276C126.557 29.0944 126.105 29.2778 125.586 29.2778C125.068 29.2778 124.616 29.0944 124.248 28.7276Z" fill="#3A4183"/>
<path d="M144.881 29.0097L142.873 24.1412H134.873L132.899 29.0097H130.07L137.936 10.0859H139.844L147.709 29.0097H144.881ZM138.89 14.5543L135.961 21.5902H141.819L138.89 14.5543Z" fill="#3A4183"/>
<path d="M150.289 29.0097V10.0859H153V29.0097H150.289Z" fill="#3A4183"/>
</svg>
